<svg width="43" height="21" viewBox="0 0 43 21" fill="none" xmlns="http://www.w3.org/2000/svg">
<path d="M37.5 0H35C34.8674 0 34.7402 0.0526785 34.6464 0.146447C34.5527 0.240215 34.5 0.367392 34.5 0.5V0.559L38 3.359V0.5C38 0.367392 37.9473 0.240215 37.8536 0.146447C37.7598 0.0526785 37.6326 0 37.5 0Z" fill="white"/>
<path d="M29.75 6.5C29.75 6.16848 29.8817 5.85054 30.1161 5.61612C30.3505 5.3817 30.6685 5.25 31 5.25C31.3315 5.25 31.6495 5.3817 31.8839 5.61612C32.1183 5.85054 32.25 6.16848 32.25 6.5C32.25 6.83152 32.1183 7.14946 31.8839 7.38388C31.6495 7.6183 31.3315 7.75 31 7.75C30.6685 7.75 30.3505 7.6183 30.1161 7.38388C29.8817 7.14946 29.75 6.83152 29.75 6.5Z" fill="white"/>
<path fill-rule="evenodd" clip-rule="evenodd" d="M40.5 8.86806L41.282 9.49406C41.4377 9.61537 41.6349 9.67044 41.8309 9.64731C42.0269 9.62418 42.2059 9.52473 42.3291 9.37051C42.4522 9.21629 42.5096 9.01974 42.4888 8.82348C42.4681 8.62721 42.3707 8.44705 42.218 8.32206L34.093 1.82206C33.428 1.28992 32.6017 1 31.75 1C30.8983 1 30.072 1.28992 29.407 1.82206L21.282 8.32206C21.1266 8.44631 21.0269 8.62721 21.0049 8.82497C20.9828 9.02273 21.0402 9.22114 21.1645 9.37656C21.2888 9.53197 21.4697 9.63167 21.6674 9.6537C21.8652 9.67574 22.0636 9.61831 22.219 9.49406L23 8.86806V19.1581H21.75C21.5511 19.1581 21.3603 19.2371 21.2197 19.3777C21.079 19.5184 21 19.7091 21 19.9081C21 20.107 21.079 20.2977 21.2197 20.4384C21.3603 20.579 21.5511 20.6581 21.75 20.6581H41.75C41.9489 20.6581 42.1397 20.579 42.2803 20.4384C42.421 20.2977 42.5 20.107 42.5 19.9081C42.5 19.7091 42.421 19.5184 42.2803 19.3777C42.1397 19.2371 41.9489 19.1581 41.75 19.1581H40.5V8.86806ZM29 7.40806C29 6.67871 29.2897 5.97924 29.8055 5.46351C30.3212 4.94779 31.0207 4.65806 31.75 4.65806C32.4793 4.65806 33.1788 4.94779 33.6945 5.46351C34.2103 5.97924 34.5 6.67871 34.5 7.40806C34.5 8.1374 34.2103 8.83688 33.6945 9.3526C33.1788 9.86833 32.4793 10.1581 31.75 10.1581C31.0207 10.1581 30.3212 9.86833 29.8055 9.3526C29.2897 8.83688 29 8.1374 29 7.40806ZM31.8 11.1581C32.464 11.1581 33.037 11.1581 33.496 11.2201C33.988 11.2861 34.459 11.4351 34.841 11.8171C35.223 12.1991 35.372 12.6701 35.438 13.1621C35.496 13.5921 35.5 14.1221 35.5 14.7351V19.1581H34V14.9081C34 14.1801 33.998 13.7081 33.952 13.3621C33.908 13.0371 33.838 12.9351 33.78 12.8781C33.722 12.8211 33.621 12.7501 33.296 12.7061C32.949 12.6601 32.478 12.6581 31.75 12.6581C31.022 12.6581 30.55 12.6601 30.204 12.7061C29.879 12.7501 29.777 12.8211 29.72 12.8781C29.663 12.9351 29.592 13.0371 29.548 13.3621C29.502 13.7091 29.5 14.1801 29.5 14.9081V19.1581H28V14.8581C28 14.1941 28 13.6211 28.062 13.1621C28.128 12.6701 28.277 12.1991 28.659 11.8171C29.041 11.4351 29.513 11.2861 30.004 11.2201C30.463 11.1581 31.036 11.1581 31.701 11.1581H31.8Z" fill="white"/>
<path d="M29.75 6.5C29.75 6.16848 29.8817 5.85054 30.1161 5.61612C30.3505 5.3817 30.6685 5.25 31 5.25C31.3315 5.25 31.6495 5.3817 31.8839 5.61612C32.1183 5.85054 32.25 6.16848 32.25 6.5C32.25 6.83152 32.1183 7.14946 31.8839 7.38388C31.6495 7.6183 31.3315 7.75 31 7.75C30.6685 7.75 30.3505 7.6183 30.1161 7.38388C29.8817 7.14946 29.75 6.83152 29.75 6.5Z" fill="white"/>
<path d="M4.31943 2.44043L0.440426 6.31943C0.300828 6.45851 0.190063 6.62378 0.114484 6.80577C0.0389052 6.98775 0 7.18287 0 7.37993C0 7.57698 0.0389052 7.7721 0.114484 7.95409C0.190063 8.13607 0.300828 8.30134 0.440426 8.44043L11.3794 19.3794C11.6724 19.6724 12.1064 19.9374 12.5674 20.1294C13.0304 20.3214 13.5264 20.4404 13.9404 20.4404H18.4404V15.9404C18.4404 15.5264 18.3214 15.0324 18.1294 14.5694C17.9374 14.1064 17.6724 13.6734 17.3794 13.3804L6.44043 2.44043C6.30134 2.30083 6.13607 2.19006 5.95409 2.11448C5.7721 2.03891 5.57698 2 5.37993 2C5.18287 2 4.98775 2.03891 4.80577 2.11448C4.62378 2.19006 4.45851 2.30083 4.31943 2.44043ZM12.5014 17.6724L4.20843 9.37943L5.44043 8.14743L13.7334 16.4404L12.5014 17.6724ZM16.4404 15.9404V17.4404L15.4404 18.4404H13.9404C13.8634 18.4404 13.6354 18.4074 13.3354 18.2824C13.3154 18.2724 16.2734 15.3154 16.2734 15.3154C16.4074 15.6374 16.4404 15.8634 16.4404 15.9404ZM15.6724 14.5014L14.4404 15.7334L6.14743 7.44043L7.37943 6.20843L15.6724 14.5014ZM6.67243 5.50143L3.50043 8.67343L2.20743 7.38043L5.37943 4.21043L6.67243 5.50143Z" fill="white"/>
</svg>
